<mxfile host="app.diagrams.net" agent="Mozilla/5.0 (Windows NT 10.0; Win64; x64) AppleWebKit/537.36 (KHTML, like Gecko) Chrome/133.0.0.0 Safari/537.36" version="26.0.11">
  <diagram name="第 1 页" id="vpc49ctVf73j3qr0SeGl">
    <mxGraphModel dx="691" dy="369" grid="1" gridSize="10" guides="1" tooltips="1" connect="1" arrows="1" fold="1" page="1" pageScale="1" pageWidth="850" pageHeight="1100" math="0" shadow="0">
      <root>
        <mxCell id="0" />
        <mxCell id="1" parent="0" />
        <mxCell id="kKcUOd927iJBqHVpucFE-1" value="" style="verticalLabelPosition=bottom;shadow=0;dashed=0;align=center;html=1;verticalAlign=top;shape=mxgraph.electrical.logic_gates.logic_gate;operation=and;" vertex="1" parent="1">
          <mxGeometry x="120" y="360" width="80" height="40" as="geometry" />
        </mxCell>
        <mxCell id="kKcUOd927iJBqHVpucFE-54" style="edgeStyle=orthogonalEdgeStyle;rounded=0;orthogonalLoop=1;jettySize=auto;html=1;entryX=0;entryY=0.5;entryDx=0;entryDy=0;endArrow=none;startFill=0;" edge="1" parent="1" source="kKcUOd927iJBqHVpucFE-2" target="kKcUOd927iJBqHVpucFE-25">
          <mxGeometry relative="1" as="geometry" />
        </mxCell>
        <mxCell id="kKcUOd927iJBqHVpucFE-2" value="" style="verticalLabelPosition=bottom;shadow=0;dashed=0;align=center;html=1;verticalAlign=top;shape=mxgraph.electrical.logic_gates.buffer2;" vertex="1" parent="1">
          <mxGeometry x="240" y="360" width="80" height="40" as="geometry" />
        </mxCell>
        <mxCell id="kKcUOd927iJBqHVpucFE-3" value="Mux" style="shadow=0;dashed=0;align=center;html=1;strokeWidth=1;shape=mxgraph.electrical.abstract.mux2;whiteSpace=wrap;" vertex="1" parent="1">
          <mxGeometry x="180" y="730" width="80" height="120" as="geometry" />
        </mxCell>
        <mxCell id="kKcUOd927iJBqHVpucFE-13" value="" style="group" vertex="1" connectable="0" parent="1">
          <mxGeometry x="600" y="320" width="80" height="120" as="geometry" />
        </mxCell>
        <mxCell id="kKcUOd927iJBqHVpucFE-6" value="" style="rounded=0;whiteSpace=wrap;html=1;" vertex="1" parent="kKcUOd927iJBqHVpucFE-13">
          <mxGeometry width="80" height="120" as="geometry" />
        </mxCell>
        <mxCell id="kKcUOd927iJBqHVpucFE-7" value="D" style="text;html=1;align=left;verticalAlign=middle;whiteSpace=wrap;rounded=0;" vertex="1" parent="kKcUOd927iJBqHVpucFE-13">
          <mxGeometry y="20" width="20" height="20" as="geometry" />
        </mxCell>
        <mxCell id="kKcUOd927iJBqHVpucFE-8" value="SI" style="text;html=1;align=left;verticalAlign=middle;whiteSpace=wrap;rounded=0;" vertex="1" parent="kKcUOd927iJBqHVpucFE-13">
          <mxGeometry y="50" width="20" height="20" as="geometry" />
        </mxCell>
        <mxCell id="kKcUOd927iJBqHVpucFE-9" value="SE" style="text;html=1;align=left;verticalAlign=middle;whiteSpace=wrap;rounded=0;" vertex="1" parent="kKcUOd927iJBqHVpucFE-13">
          <mxGeometry y="80" width="20" height="20" as="geometry" />
        </mxCell>
        <mxCell id="kKcUOd927iJBqHVpucFE-10" value="" style="verticalLabelPosition=bottom;verticalAlign=top;html=1;shape=mxgraph.basic.acute_triangle;dx=0.39;" vertex="1" parent="kKcUOd927iJBqHVpucFE-13">
          <mxGeometry x="35" y="110" width="10" height="10" as="geometry" />
        </mxCell>
        <mxCell id="kKcUOd927iJBqHVpucFE-11" value="CK" style="text;html=1;align=center;verticalAlign=middle;whiteSpace=wrap;rounded=0;" vertex="1" parent="kKcUOd927iJBqHVpucFE-13">
          <mxGeometry x="45" y="100" width="20" height="20" as="geometry" />
        </mxCell>
        <mxCell id="kKcUOd927iJBqHVpucFE-12" value="Q" style="text;html=1;align=right;verticalAlign=middle;whiteSpace=wrap;rounded=0;" vertex="1" parent="kKcUOd927iJBqHVpucFE-13">
          <mxGeometry x="60" y="50" width="20" height="20" as="geometry" />
        </mxCell>
        <mxCell id="kKcUOd927iJBqHVpucFE-14" value="" style="group" vertex="1" connectable="0" parent="1">
          <mxGeometry x="290" y="720" width="80" height="120" as="geometry" />
        </mxCell>
        <mxCell id="kKcUOd927iJBqHVpucFE-15" value="" style="rounded=0;whiteSpace=wrap;html=1;" vertex="1" parent="kKcUOd927iJBqHVpucFE-14">
          <mxGeometry width="80" height="120" as="geometry" />
        </mxCell>
        <mxCell id="kKcUOd927iJBqHVpucFE-16" value="D" style="text;html=1;align=left;verticalAlign=middle;whiteSpace=wrap;rounded=0;" vertex="1" parent="kKcUOd927iJBqHVpucFE-14">
          <mxGeometry y="20" width="20" height="20" as="geometry" />
        </mxCell>
        <mxCell id="kKcUOd927iJBqHVpucFE-17" value="SI" style="text;html=1;align=left;verticalAlign=middle;whiteSpace=wrap;rounded=0;" vertex="1" parent="kKcUOd927iJBqHVpucFE-14">
          <mxGeometry y="50" width="20" height="20" as="geometry" />
        </mxCell>
        <mxCell id="kKcUOd927iJBqHVpucFE-18" value="SE" style="text;html=1;align=left;verticalAlign=middle;whiteSpace=wrap;rounded=0;" vertex="1" parent="kKcUOd927iJBqHVpucFE-14">
          <mxGeometry y="80" width="20" height="20" as="geometry" />
        </mxCell>
        <mxCell id="kKcUOd927iJBqHVpucFE-19" value="" style="verticalLabelPosition=bottom;verticalAlign=top;html=1;shape=mxgraph.basic.acute_triangle;dx=0.39;" vertex="1" parent="kKcUOd927iJBqHVpucFE-14">
          <mxGeometry x="35" y="110" width="10" height="10" as="geometry" />
        </mxCell>
        <mxCell id="kKcUOd927iJBqHVpucFE-20" value="CK" style="text;html=1;align=center;verticalAlign=middle;whiteSpace=wrap;rounded=0;" vertex="1" parent="kKcUOd927iJBqHVpucFE-14">
          <mxGeometry x="45" y="100" width="20" height="20" as="geometry" />
        </mxCell>
        <mxCell id="kKcUOd927iJBqHVpucFE-21" value="Q" style="text;html=1;align=right;verticalAlign=middle;whiteSpace=wrap;rounded=0;" vertex="1" parent="kKcUOd927iJBqHVpucFE-14">
          <mxGeometry x="60" y="50" width="20" height="20" as="geometry" />
        </mxCell>
        <mxCell id="kKcUOd927iJBqHVpucFE-22" value="" style="verticalLabelPosition=bottom;shadow=0;dashed=0;align=center;html=1;verticalAlign=top;shape=mxgraph.electrical.logic_gates.logic_gate;operation=or;" vertex="1" parent="1">
          <mxGeometry x="720" y="360" width="80" height="40" as="geometry" />
        </mxCell>
        <mxCell id="kKcUOd927iJBqHVpucFE-23" value="" style="group" vertex="1" connectable="0" parent="1">
          <mxGeometry x="360" y="320" width="80" height="120" as="geometry" />
        </mxCell>
        <mxCell id="kKcUOd927iJBqHVpucFE-24" value="" style="rounded=0;whiteSpace=wrap;html=1;" vertex="1" parent="kKcUOd927iJBqHVpucFE-23">
          <mxGeometry width="80" height="120" as="geometry" />
        </mxCell>
        <mxCell id="kKcUOd927iJBqHVpucFE-25" value="D" style="text;html=1;align=left;verticalAlign=middle;whiteSpace=wrap;rounded=0;" vertex="1" parent="kKcUOd927iJBqHVpucFE-23">
          <mxGeometry y="20" width="20" height="20" as="geometry" />
        </mxCell>
        <mxCell id="kKcUOd927iJBqHVpucFE-26" value="SI" style="text;html=1;align=left;verticalAlign=middle;whiteSpace=wrap;rounded=0;" vertex="1" parent="kKcUOd927iJBqHVpucFE-23">
          <mxGeometry y="50" width="20" height="20" as="geometry" />
        </mxCell>
        <mxCell id="kKcUOd927iJBqHVpucFE-27" value="SE" style="text;html=1;align=left;verticalAlign=middle;whiteSpace=wrap;rounded=0;" vertex="1" parent="kKcUOd927iJBqHVpucFE-23">
          <mxGeometry y="80" width="20" height="20" as="geometry" />
        </mxCell>
        <mxCell id="kKcUOd927iJBqHVpucFE-28" value="" style="verticalLabelPosition=bottom;verticalAlign=top;html=1;shape=mxgraph.basic.acute_triangle;dx=0.39;" vertex="1" parent="kKcUOd927iJBqHVpucFE-23">
          <mxGeometry x="35" y="110" width="10" height="10" as="geometry" />
        </mxCell>
        <mxCell id="kKcUOd927iJBqHVpucFE-29" value="CK" style="text;html=1;align=center;verticalAlign=middle;whiteSpace=wrap;rounded=0;" vertex="1" parent="kKcUOd927iJBqHVpucFE-23">
          <mxGeometry x="45" y="100" width="20" height="20" as="geometry" />
        </mxCell>
        <mxCell id="kKcUOd927iJBqHVpucFE-30" value="Q" style="text;html=1;align=right;verticalAlign=middle;whiteSpace=wrap;rounded=0;" vertex="1" parent="kKcUOd927iJBqHVpucFE-23">
          <mxGeometry x="60" y="50" width="20" height="20" as="geometry" />
        </mxCell>
        <mxCell id="kKcUOd927iJBqHVpucFE-31" value="" style="verticalLabelPosition=bottom;shadow=0;dashed=0;align=center;html=1;verticalAlign=top;shape=mxgraph.electrical.logic_gates.logic_gate;operation=and;" vertex="1" parent="1">
          <mxGeometry x="480" y="360" width="80" height="40" as="geometry" />
        </mxCell>
        <mxCell id="kKcUOd927iJBqHVpucFE-32" value="" style="group" vertex="1" connectable="0" parent="1">
          <mxGeometry x="840" y="320" width="80" height="120" as="geometry" />
        </mxCell>
        <mxCell id="kKcUOd927iJBqHVpucFE-33" value="" style="rounded=0;whiteSpace=wrap;html=1;" vertex="1" parent="kKcUOd927iJBqHVpucFE-32">
          <mxGeometry width="80" height="120" as="geometry" />
        </mxCell>
        <mxCell id="kKcUOd927iJBqHVpucFE-34" value="D" style="text;html=1;align=left;verticalAlign=middle;whiteSpace=wrap;rounded=0;" vertex="1" parent="kKcUOd927iJBqHVpucFE-32">
          <mxGeometry y="20" width="20" height="20" as="geometry" />
        </mxCell>
        <mxCell id="kKcUOd927iJBqHVpucFE-35" value="SI" style="text;html=1;align=left;verticalAlign=middle;whiteSpace=wrap;rounded=0;" vertex="1" parent="kKcUOd927iJBqHVpucFE-32">
          <mxGeometry y="50" width="20" height="20" as="geometry" />
        </mxCell>
        <mxCell id="kKcUOd927iJBqHVpucFE-36" value="SE" style="text;html=1;align=left;verticalAlign=middle;whiteSpace=wrap;rounded=0;" vertex="1" parent="kKcUOd927iJBqHVpucFE-32">
          <mxGeometry y="80" width="20" height="20" as="geometry" />
        </mxCell>
        <mxCell id="kKcUOd927iJBqHVpucFE-37" value="" style="verticalLabelPosition=bottom;verticalAlign=top;html=1;shape=mxgraph.basic.acute_triangle;dx=0.39;" vertex="1" parent="kKcUOd927iJBqHVpucFE-32">
          <mxGeometry x="35" y="110" width="10" height="10" as="geometry" />
        </mxCell>
        <mxCell id="kKcUOd927iJBqHVpucFE-38" value="CK" style="text;html=1;align=center;verticalAlign=middle;whiteSpace=wrap;rounded=0;" vertex="1" parent="kKcUOd927iJBqHVpucFE-32">
          <mxGeometry x="45" y="100" width="20" height="20" as="geometry" />
        </mxCell>
        <mxCell id="kKcUOd927iJBqHVpucFE-39" value="Q" style="text;html=1;align=right;verticalAlign=middle;whiteSpace=wrap;rounded=0;" vertex="1" parent="kKcUOd927iJBqHVpucFE-32">
          <mxGeometry x="60" y="50" width="20" height="20" as="geometry" />
        </mxCell>
        <mxCell id="kKcUOd927iJBqHVpucFE-40" value="" style="verticalLabelPosition=bottom;shadow=0;dashed=0;align=center;html=1;verticalAlign=top;shape=mxgraph.electrical.logic_gates.logic_gate;operation=or;" vertex="1" parent="1">
          <mxGeometry x="425" y="770" width="80" height="40" as="geometry" />
        </mxCell>
        <mxCell id="kKcUOd927iJBqHVpucFE-41" value="" style="verticalLabelPosition=bottom;shadow=0;dashed=0;align=center;html=1;verticalAlign=top;shape=mxgraph.electrical.logic_gates.logic_gate;operation=and;" vertex="1" parent="1">
          <mxGeometry x="560" y="780" width="80" height="40" as="geometry" />
        </mxCell>
        <mxCell id="kKcUOd927iJBqHVpucFE-42" value="" style="verticalLabelPosition=bottom;shadow=0;dashed=0;align=center;html=1;verticalAlign=top;shape=mxgraph.electrical.logic_gates.buffer2;" vertex="1" parent="1">
          <mxGeometry x="670" y="790" width="80" height="40" as="geometry" />
        </mxCell>
        <mxCell id="kKcUOd927iJBqHVpucFE-43" value="" style="verticalLabelPosition=bottom;shadow=0;dashed=0;align=center;html=1;verticalAlign=top;shape=mxgraph.electrical.logic_gates.buffer2;" vertex="1" parent="1">
          <mxGeometry x="960" y="350" width="80" height="40" as="geometry" />
        </mxCell>
        <mxCell id="kKcUOd927iJBqHVpucFE-44" value="" style="verticalLabelPosition=bottom;shadow=0;dashed=0;align=center;html=1;verticalAlign=top;shape=mxgraph.electrical.logic_gates.logic_gate;operation=and;" vertex="1" parent="1">
          <mxGeometry x="1080" y="380" width="80" height="40" as="geometry" />
        </mxCell>
        <mxCell id="kKcUOd927iJBqHVpucFE-56" value="" style="edgeStyle=orthogonalEdgeStyle;rounded=0;orthogonalLoop=1;jettySize=auto;html=1;endArrow=none;startFill=0;" edge="1" parent="1" source="kKcUOd927iJBqHVpucFE-45" target="kKcUOd927iJBqHVpucFE-46">
          <mxGeometry relative="1" as="geometry" />
        </mxCell>
        <mxCell id="kKcUOd927iJBqHVpucFE-45" value="" style="verticalLabelPosition=bottom;shadow=0;dashed=0;align=center;html=1;verticalAlign=top;shape=mxgraph.electrical.logic_gates.logic_gate;operation=or;" vertex="1" parent="1">
          <mxGeometry x="120" y="500" width="80" height="40" as="geometry" />
        </mxCell>
        <mxCell id="kKcUOd927iJBqHVpucFE-46" value="" style="verticalLabelPosition=bottom;shadow=0;dashed=0;align=center;html=1;verticalAlign=top;shape=mxgraph.electrical.logic_gates.buffer2;" vertex="1" parent="1">
          <mxGeometry x="260" y="500" width="80" height="40" as="geometry" />
        </mxCell>
        <mxCell id="kKcUOd927iJBqHVpucFE-47" value="" style="verticalLabelPosition=bottom;shadow=0;dashed=0;align=center;html=1;verticalAlign=top;shape=mxgraph.electrical.logic_gates.logic_gate;operation=and;" vertex="1" parent="1">
          <mxGeometry x="385" y="500" width="80" height="40" as="geometry" />
        </mxCell>
        <mxCell id="kKcUOd927iJBqHVpucFE-48" value="" style="verticalLabelPosition=bottom;shadow=0;dashed=0;align=center;html=1;verticalAlign=top;shape=mxgraph.electrical.logic_gates.buffer2;" vertex="1" parent="1">
          <mxGeometry x="505" y="500" width="80" height="40" as="geometry" />
        </mxCell>
        <mxCell id="kKcUOd927iJBqHVpucFE-49" value="" style="verticalLabelPosition=bottom;shadow=0;dashed=0;align=center;html=1;verticalAlign=top;shape=mxgraph.electrical.logic_gates.logic_gate;operation=and;" vertex="1" parent="1">
          <mxGeometry x="660" y="490" width="80" height="40" as="geometry" />
        </mxCell>
        <mxCell id="kKcUOd927iJBqHVpucFE-50" value="" style="verticalLabelPosition=bottom;shadow=0;dashed=0;align=center;html=1;verticalAlign=top;shape=mxgraph.electrical.logic_gates.logic_gate;operation=and;" vertex="1" parent="1">
          <mxGeometry x="800" y="500" width="80" height="40" as="geometry" />
        </mxCell>
        <mxCell id="kKcUOd927iJBqHVpucFE-51" value="" style="verticalLabelPosition=bottom;shadow=0;dashed=0;align=center;html=1;verticalAlign=top;shape=mxgraph.electrical.logic_gates.logic_gate;operation=and;" vertex="1" parent="1">
          <mxGeometry x="940" y="500" width="80" height="40" as="geometry" />
        </mxCell>
        <mxCell id="kKcUOd927iJBqHVpucFE-53" style="edgeStyle=orthogonalEdgeStyle;rounded=0;orthogonalLoop=1;jettySize=auto;html=1;entryX=0.033;entryY=0.5;entryDx=0;entryDy=0;entryPerimeter=0;strokeColor=default;endArrow=none;startFill=0;" edge="1" parent="1" source="kKcUOd927iJBqHVpucFE-1" target="kKcUOd927iJBqHVpucFE-2">
          <mxGeometry relative="1" as="geometry" />
        </mxCell>
        <mxCell id="kKcUOd927iJBqHVpucFE-55" style="edgeStyle=orthogonalEdgeStyle;rounded=0;orthogonalLoop=1;jettySize=auto;html=1;entryX=0;entryY=0.75;entryDx=0;entryDy=0;entryPerimeter=0;endArrow=none;startFill=0;" edge="1" parent="1" source="kKcUOd927iJBqHVpucFE-24" target="kKcUOd927iJBqHVpucFE-31">
          <mxGeometry relative="1" as="geometry" />
        </mxCell>
      </root>
    </mxGraphModel>
  </diagram>
</mxfile>
